<?xml version="1.0" encoding="utf-8"?>
<!-- Generator: Adobe Illustrator 24.2.0, SVG Export Plug-In . SVG Version: 6.00 Build 0)  -->
<svg version="1.1" id="Layer_1" xmlns="http://www.w3.org/2000/svg" xmlns:xlink="http://www.w3.org/1999/xlink" x="0px" y="0px"
	 viewBox="0 0 332 331.6" enable-background="new 0 0 332 331.6" xml:space="preserve">
<g>
	<path fill="none" d="M189.3,237c-0.5-0.3-1.1-0.6-1.7-0.8c-1.3-0.5-2.6-0.9-3.9-1.4c-4-1.4-8.1-2.5-12.4-2.8
		c-3-0.2-5.9-0.2-8.9-0.1c-2.8,0.1-5.7,0.3-8.5,0.5c-0.5,0-1,0.2-1.5,0.4c-0.9,0.4-1.4,1.1-1.5,2.1c0,0.9,0.5,1.7,1.3,2.1
		c0.4,0.2,0.9,0.4,1.4,0.5c2.1,0.5,4.3,0.9,6.4,1.3c1.9,0.4,3.8,0.9,5.7,1.6c-0.3,0.4-0.5,0.7-0.7,1c-0.5,1,0.2,2,1.3,1.8
		c0.5-0.1,1-0.3,1.5-0.6c0.6-0.4,1.2-0.8,1.9-1.3c0.1,0.1,0.1,0.2,0.2,0.2c-0.3,0.5-0.7,0.9-0.8,1.4c-0.4,1.1,0.2,1.9,1.4,1.8
		c0.5-0.1,1.1-0.3,1.5-0.6c0.5-0.3,1-0.8,1.5-1.2c0.4-0.4,0.8-0.5,1.3-0.3c1.4,0.4,2.8,0.7,4.1,1.1c1.2,0.4,2.3,1.1,3.5,1.6
		c2.7,1.1,5,0.8,6.6-1.8c0.5-0.8,1-1.7,1.4-2.6C191.2,239.2,190.9,238,189.3,237z"/>
	<path fill="none" d="M131.5,300.3c-0.1,0.4,0.1,0.9,0.3,1.4c1.3,3.3,3.3,6.2,6.2,8.4c4.7,3.5,10.1,5.2,15.9,5.8
		c2.3,0.2,4.5,0.2,6.8,0.4c3.9,0.2,7.8,0.1,11.7-0.5c6.1-0.9,11.8-2.8,17.2-5.8c0.5-0.3,1-0.7,1.3-1.2c1.2-1.5,2.4-3,3.6-4.5
		c1-1.3,1.9-2.6,2.9-4c0.6-0.8,0.9-1.8,0.9-2.9c-1-0.1-1.8-0.3-2.7-0.4c-6.9-0.9-13.4-3.1-19.7-6.2c-0.6-0.3-1.2-0.6-1.9-0.8
		c-2.5-1-5-2.1-7.5-3.1c-0.1-0.1-0.3-0.1-0.5-0.1c-0.7,4.3-0.4,8.8-2.7,13c-2.3-4.3-1.9-8.8-1.8-13.3c-0.6,0-1.3-0.2-1.7,0
		c-0.7,0.4-1.2,1.1-1.8,1.7c-0.3-0.6-0.7-0.4-1.1-0.2c-4.4,2.1-9.1,3.6-13.4,5.9c-0.2,0.1-0.5,0.2-0.7,0.3
		c-3.8,1.5-7.6,2.7-11.6,3.4C131.4,298.5,131.7,299.4,131.5,300.3z"/>
	<path fill="none" d="M129.1,298.1c-0.3,0-0.6,0-1,0c0,0.1,0,0.1,0,0.2c0.3,0,0.7,0,1-0.1C129.1,298.2,129.1,298.1,129.1,298.1z"/>
	<path d="M63.3,11c-2-1.3-3.6-2.9-5.6-4c-1.2,0.7-2.4,1.4-3.6,2.1c0.2,0.3,0.3,0.5,0.4,0.6c-0.3,0.2-0.5,0.4-0.7,0.6
		c1,2.1,1.8,4.1,2.8,6c0.3,0.5,0.6,1.1,1,1.5c0.5,0.6,1.1,0.8,1.8,0.8c0.8,0,1.3-0.5,1.3-1.3c0-0.5-0.1-1.1-0.2-1.6
		c-0.1-0.4-0.2-0.8-0.3-1.2c0.8,0.5,1.8,1,2,1.8c0.3,1.1,0.9,1.6,1.9,1.9c0.2,0.1,0.4,0.3,0.6,0.5c0.9,1,1.9,1.9,2.8,2.9
		c2.6,3.1,5.2,6.3,7.8,9.5c1.7,2.2,3.5,4.4,5.1,6.7C85.6,45.5,90,53.7,94,62.1c5,10.5,9.9,21,14.8,31.5c3.6,7.7,7,15.4,9.6,23.5
		c0.5,1.6,1.1,3.1,1.7,4.6c0.3,0.7,0.6,1.4,1.1,2c1.1,1.3,2.9,1.2,3.8-0.2c0.1-0.2,0.2-0.4,0.4-0.8c0.7,1.4,1.6,2.7,1.7,4.2
		c0.1,1.5,0.2,2.9,0.3,4.4c0.1,0.9,0.5,1.3,1.3,1.1c0.5-0.1,1.1-0.4,1.4-0.8c0.4-0.5,0.6-1.2,0.8-1.9c0.2-0.6,0.4-1.3,0.6-1.9
		c1.2,0.7,1.7,1.6,1.5,2.8c-0.1,0.7,0,1.5,0.2,2.2c0.1,0.5,0.6,0.9,1,1.3c0.2,0.2,0.8,0.2,0.9,0c0.6-0.7,1.9-0.8,2-2
		c0-0.2,0.5-0.4,0.7-0.4c0.5,0,1,0,1.4,0.1c1.5,0.6,3,0.9,4.7,0.8c1,0,2.1,0,3.1,0c9.6,0,19.3,0.1,28.9,0c3.2,0,6.4-0.2,9.6-1.1
		c1.2-0.4,2.4-0.6,3.6-0.4c1.3,0.2,2.7-0.1,3.9,0.4c0.3,0.1,0.9,0,1.3-0.1c1.2-0.3,1.8-1.2,1.7-2.7c-0.1-2,0.5-3.8,1.4-5.5
		c0.1-0.2,0.3-0.5,0.6-0.9c0.2,0.6,0.4,1,0.5,1.3c0.2,0.9,0.3,1.9,0.6,2.8c0.2,0.8,0.6,1.5,1.7,1.9c0.5-1.9,1-3.6,1.3-5.4
		c0.3-1.7,0.5-3.5,0.7-5.3c0.6,1.1,1.1,2.1,1.7,3.1c0.2,0.3,0.4,0.5,0.7,0.7c0.4,0.3,0.8,0.5,1.4,0.8c-1.4-2.9-1.6-5.8-1.7-8.7
		c0.2,0,0.2,0,0.3,0c0.8,1,1.6,2,2.4,3c0.9,1.1,2.2,1.1,3.1,0.2c0.3-0.3,0.5-0.6,0.7-0.9c1.6-2.7,3.3-5.4,4.8-8.2
		c4.5-8.5,8.9-17,13.3-25.5c4.7-9,9.4-18,15.1-26.4c4.3-6.3,9-12.3,14.4-17.7c4.6-4.7,9.8-8.8,14.9-12.9c3-2.4,6.4-3.9,10.2-4.6
		c1.5-0.3,3.1-0.5,4.8-0.3c-0.4,0.4-0.8,0.8-1.1,1.2c-0.3,0.4-0.5,0.8-0.3,1.3c0.3,0.5,0.7,0.7,1.3,0.8c0.2,0,0.5-0.1,0.7-0.2
		c0.8-0.5,1.7-0.9,2.4-1.4c0.6-0.4,1.2-1,1.8-1.4c0.8,0.3,1.5,0.6,2.3,0.9c-0.5,0.5-1,0.8-1.4,1.2c-0.4,0.4-0.6,0.9-0.3,1.5
		c0.3,0.6,0.8,0.8,1.4,0.8c0.3,0,0.5-0.1,0.7-0.2c1.7-0.6,3-1.7,4.4-2.6c-0.1-0.2-0.2-0.3-0.2-0.3c-2-2.1-3.9-4.2-5.9-6.3
		c-0.3-0.3-0.8-0.5-1.2-0.6c-1.2-0.2-2.5-0.2-3.7-0.3c-0.5-2-1.2-2.5-3.3-2.6c-0.2,0-0.3,0-0.5,0c-0.9,0.1-1.7-0.2-2.4-0.7
		c-0.9-0.6-1.8-1.2-2.9-1.9c-1.2,0.7-2.6,1.4-3.9,2.1c-11.9,7.4-22.7,16.3-32,26.8c-7.4,8.3-13.9,17.3-19.5,26.9
		c-6.8,11.7-13.2,23.6-19.3,35.7c-0.4,0.8-0.9,1.7-1.2,2.6c-0.3,0.8-0.7,1.3-1.2,1.9c-0.6,0.7-1.4,1.3-1.6,2.1
		c-0.6,1.9-1.9,3.2-3.1,4.7c-0.3,0.4-0.6,0.8-0.9,1.3c-0.4,0.7-0.9,1.4-1.4,2.2c-0.7-1.1-1.6-0.8-2.6-0.7c-1.4,0.2-2.2,1-2.9,2.1
		c-0.7,1.1-0.9,2.3-0.9,3.6c0,0.9,0,1.9,0,2.9c-0.3,0-0.5,0.1-0.8,0.1c-2.4,0-4.7,0-7.1,0c-3,0.1-5.9,0.1-8.9,0.2
		c-2.6,0.1-5.1,0.4-7.7,0.4c-8.4,0-16.8-0.1-25.1-0.3c-1.1,0-2.2-0.3-3.2-0.4c-0.2-1-0.3-1.8-0.6-2.6c-0.3-1.2-0.8-1.5-2-1.5
		c-1.8-2.1-2.2-2.2-3.8-1.1c-0.5-0.7-0.5-0.7-0.9-2.1c-1.3-5.5-3.1-10.9-5.4-16.1c-4.4-10.1-9.5-19.8-14.7-29.5
		C104,60,98,49.6,91.4,39.6c-7-10.7-14-21.3-21-32c-0.2-0.3-0.4-0.6-0.7-1c-2.8,0.3-5.5,0.7-8.4,1C62,8.8,62.6,9.9,63.3,11z"/>
	<path d="M107.1,296.3c1.1,0.5,2.2,1.1,3.3,1.4c1.4,0.4,2.9,0.6,4.4,0.7c2.3,0.2,4.7,0.5,7-0.1c1.1-0.2,2,0,2.6,0.9
		c0.2,0.2,0.4,0.6,0.6,0.6c0.6,0.2,0.7,0.6,0.9,1.2c1.2,3.9,3.1,7.4,6.5,9.8c0.2,0.2,0.4,0.3,0.6,0.5c2.8,3,6.1,5.4,9.7,7.4
		c3.8,2.2,7.8,3.9,12.2,4.1c4.9,0.3,9.8,0.1,14.6-0.8c0.5-0.1,1.2-0.3,1.6-0.1c2.1,0.7,4.1,0.3,6.2-0.4c0.4-0.1,0.9-0.2,1.2-0.1
		c1.7,0.5,3.2,0.2,4.8-0.5c3.8-1.7,7.1-4.1,10.2-6.9c2.9-2.5,5.3-5.5,7.6-8.6c1.6-2.1,2.8-4.4,3.4-7c0.1-0.3,0.2-0.6,0.3-0.9
		c1.9-0.1,3.7-0.2,5.5-0.4c1.9-0.2,3.8-0.5,5.6-1.5c1-0.5,2-1.1,3.1-0.9c0.1-0.9,0.1-0.9,0.7-1.4c0.6-0.6,1.3-1.2,1.8-1.8
		c5-5.8,8-12.6,9.6-20c0.2-0.9-0.1-1.9-0.1-2.9c0-0.4-0.1-0.8-0.1-1.3c0.1-1.9,0.5-3.8,0.1-5.6c-0.1-0.7,0.1-1.3,0.7-1.8
		c0.5,0.2,1.1,0.3,1.7,0.5c2,0.4,3.9,1.1,5.9,1.1c1.7,0,3.4-0.5,5.2-0.3c0,0,0-0.1,0.2-0.2c-0.6-0.9-1.3-1.8-1.9-2.8
		c-0.7-1.1-1.7-1.6-2.8-1.9c-3.5-1-7-1.9-10.6-2.8c-0.3-0.1-0.7-0.1-1-0.1c-0.5,0-1,0.2-1.5,0.2c-1.3,0.1-2.3,1-2.3,2.3
		c0,1.6-0.2,3.1-0.1,4.7c0.2,3,0,6-0.1,9c0,0.8-0.2,1.5-0.5,2.2c-2.9,7-7.8,12.4-13.4,17.4c-0.4,0.3-0.8,0.4-1.3,0.3
		c-2.2-0.4-4.4-0.8-6.6-1.1c-3.7-0.5-7.3-0.8-11-1.3c-5.9-0.7-11.6-1.9-17.2-3.8c-3.1-1-6.2-2.3-9.4-3.4c-0.1,0.8-0.7,0.5-1.2,0.4
		c-1.9-0.3-3.7-0.2-5.4,0.7c-8.8,4.1-18.1,6.2-27.6,7.4c-2.9,0.4-5.8,0.7-8.7,1c-1.6,0.2-3.2,0.2-4.7,0.3c-0.7,0-1.5-0.2-2.2-0.2
		c-1,0-1.8-0.2-2.4-1c-0.2-0.2-0.4-0.4-0.6-0.5c-2.9-2.9-5.5-6-7.4-9.7c-2.4-4.8-3.8-9.8-4.4-15.1c-0.1-1-0.2-2.1-0.5-3
		c-0.4-1-0.6-1.9-0.6-3c0-1.4-1-2.4-2.4-2.4c-0.3,0-0.7,0.1-0.9-0.1c-0.7-0.4-1.3-0.1-2,0.1c-3.1,0.8-6.1,1.7-9.2,2.5
		c-0.7,0.2-1.4,0.3-2.1,0.7c-1.8,0.9-2.3,2.8-3.5,4.4c0.6,0.1,1,0.1,1.5,0c0.8-0.1,1.6-0.1,2.4,0.2c0.7,0.2,1.5,0.3,2.3,0.2
		c1.9-0.3,3.7-0.8,5.5-1.2c0.4-0.1,0.8-0.2,1.2-0.3c0.6,0.7,0.6,1.3,0.7,1.9c0,1.8,0.1,3.7,0.2,5.5c0,0.4,0.1,0.8-0.1,1.1
		c-0.5,1.2-0.4,2.5,0,3.7c2.1,8.2,5.3,15.8,11.8,21.6c0.4,0.3,0.2,0.6-0.2,0.8c-3.9-3.7-7.4-7.5-10.6-11.8
		c-2.7-3.6-5.1-7.5-8.2-10.9c-0.3-0.3-0.4-0.7-0.7-1.1c-0.3-0.3-0.6-0.6-0.9-0.9c-0.9,0.9-1.1,1.3-0.7,2.5c0.4,1.3,1,2.6,1.6,3.8
		c3.3,6.1,7.3,11.7,12.3,16.7c3.2,3.2,6.6,6.2,10.7,8.4c1.3,0.7,2.7,1.3,4.2,1.6c1.4,0.3,2.9,0.4,4,1.7c0.2-0.8-0.3-0.9-0.7-1.2
		c-0.7-0.5-1.5-1-2.2-1.6c-0.6-0.5-1.2-1-1.8-1.4c-1.9-1.6-3.9-3.1-5.8-4.7c-0.2-0.2-0.3-0.3-0.6-0.6
		C105.8,295.8,106.5,296,107.1,296.3z M142.8,294.2c0.2-0.1,0.5-0.2,0.7-0.3c4.3-2.3,9-3.8,13.4-5.9c0.5-0.2,0.8-0.4,1.1,0.2
		c0.6-0.6,1.1-1.3,1.8-1.7c0.4-0.2,1.1,0,1.7,0c-0.1,4.5-0.5,9,1.8,13.3c2.2-4.2,2-8.7,2.7-13c0.2,0,0.4,0.1,0.5,0.1
		c2.5,1,5,2.1,7.5,3.1c0.6,0.3,1.3,0.5,1.9,0.8c6.2,3.1,12.7,5.3,19.7,6.2c0.9,0.1,1.8,0.2,2.7,0.4c0.1,1.1-0.3,2-0.9,2.9
		c-0.9,1.3-1.9,2.7-2.9,4c-1.2,1.5-2.4,3.1-3.6,4.5c-0.4,0.5-0.8,0.9-1.3,1.2c-5.4,3-11.2,4.9-17.2,5.8c-3.9,0.6-7.8,0.7-11.7,0.5
		c-2.3-0.1-4.6-0.1-6.8-0.4c-5.8-0.6-11.1-2.4-15.9-5.8c-2.9-2.1-4.9-5-6.2-8.4c-0.2-0.4-0.4-1-0.3-1.4c0.3-0.9,0-1.8-0.3-2.7
		C135.2,296.9,139,295.7,142.8,294.2z M128.1,298.1c0.3,0,0.6,0,1,0c0,0.1,0,0.1,0,0.2c-0.3,0-0.7,0-1,0.1
		C128.1,298.2,128.1,298.1,128.1,298.1z"/>
	<path d="M197.4,232.5c-0.4-0.2-0.8-0.4-1.1-0.6c-1.9-1.8-4.2-2.7-6.6-3.3c-1.1-0.3-2.2-0.6-3.3-1c-2.6-0.8-5.2-1.4-7.9-1.6
		c-3.5-0.2-7-0.3-10.6-0.4c0,0,0,0.1,0,0.1c-2.1,0-4.3-0.1-6.4,0c-1.8,0.1-3.5,0.2-5.2,0.6c-1.7,0.4-3.4,0.5-5.1,0.7
		c-1.7,0.2-3.3,0.3-5,0.6c-1.6,0.3-3.1,0.8-4.7,1.2c-1.6,0.4-2.9,1.6-4.6,1.8c-0.3,0-0.5,0.3-0.8,0.4c-2.2,1.6-3.4,3.9-4.3,6.4
		c-0.1,0.2-0.1,0.5-0.1,0.8c0,3.9,0.5,7.7,1.9,11.4c0.3,0.8,0.8,1.5,1.4,2.1c5.3,5,11.3,8.6,18.2,10.8c2.7,0.9,5.4,1.5,8.2,1.2
		c1.2-0.1,2.4,0,3.6-0.1c0.8,0,1.6-0.1,2.3-0.2c3.3-0.7,6.5-1.5,9.8-2.3c2.4-0.6,4.8-1.1,6.9-2.6c1.4-1,2.9-1.7,4.4-2.6
		c0.4-0.2,0.7-0.4,1.1-0.7c2.4-2,4.9-4.1,6.7-6.8c0.6-0.9,1.3-1.8,1.7-2.9c0.7-2.1,1.3-4.3,1.8-6.5c0.2-1.1,0.2-2.3,0.1-3.5
		C199.5,234.4,198.7,233.3,197.4,232.5z M190.5,240.8c-0.4,0.9-0.9,1.8-1.4,2.6c-1.6,2.6-3.9,2.9-6.6,1.8c-1.2-0.5-2.3-1.1-3.5-1.6
		c-1.3-0.5-2.7-0.7-4.1-1.1c-0.5-0.1-0.9,0-1.3,0.3c-0.5,0.4-1,0.9-1.5,1.2c-0.5,0.3-1,0.5-1.5,0.6c-1.2,0.1-1.8-0.7-1.4-1.8
		c0.2-0.5,0.6-0.9,0.8-1.4c-0.1-0.1-0.1-0.2-0.2-0.2c-0.6,0.4-1.2,0.9-1.9,1.3c-0.5,0.3-1,0.6-1.5,0.6c-1.1,0.1-1.8-0.8-1.3-1.8
		c0.2-0.3,0.4-0.6,0.7-1c-1.9-0.7-3.7-1.2-5.7-1.6c-2.1-0.4-4.3-0.9-6.4-1.3c-0.5-0.1-1-0.3-1.4-0.5c-0.8-0.4-1.3-1.1-1.3-2.1
		c0-1,0.6-1.7,1.5-2.1c0.5-0.2,1-0.4,1.5-0.4c2.8-0.2,5.7-0.5,8.5-0.5c3-0.1,5.9-0.1,8.9,0.1c4.3,0.3,8.4,1.4,12.4,2.8
		c1.3,0.4,2.6,0.9,3.9,1.4c0.6,0.2,1.2,0.5,1.7,0.8C190.9,238,191.2,239.2,190.5,240.8z"/>
	<path d="M76.2,131.8c6.1-4.8,10.6-10.9,14.6-17.4c1.1-1.8,2.1-3.7,3.1-5.6c0.1,0.1,0.2,0.3,0.2,0.4c0.9,4,2.2,7.9,3.6,11.7
		c0.1,0.3,0.1,0.6,0.1,0.9c0,1.8,0,3.5,0.1,5.3c0,0.1,0.1,0.3,0.1,0.4c0.1,0,0.2,0,0.3,0c0.1-0.5,0.2-1.1,0.2-1.6
		c0-0.6,0-1.3-0.1-1.9c-0.1-1.5,0-2.9,0.3-4.3c0.5-2.6,0.7-5.2,0.4-7.8c-0.5-5-1.4-9.9-2.7-14.7c-2.3-8.7-5.3-17.2-8.7-25.6
		c-3.2-7.7-6.9-15.2-11.5-22.2c-6-9.2-13.2-17.4-21.4-24.8c-1.4-1.3-2.9-2.6-4.7-3.3c-1.2-0.5-1.8-0.6-2.2,0
		c-0.6,0.8-0.1,1.5,0.3,2.1c1.2,1.6,2.4,3.2,3.6,4.7c3.9,4.8,8,9.4,11.9,14.3c5.8,7.2,10.7,14.9,14.7,23.2
		c4.3,8.9,7.7,18.2,10.9,27.5c0.8,2.2,1,4.5,0.9,6.8c-0.1,3.4-1,6.6-2.9,9.5c-1,1.5-2,3.1-3.1,4.6c-2.5,3.4-4.9,7-8,9.9
		c-0.3,0.3-0.7,0.6-1,0.9c-0.3-0.7-0.6-1.3-0.9-1.9c-0.6-1.1-1.3-2.2-2-3.3c-0.8-1.4-1.4-2.9-1.5-4.5c-0.1-0.9-0.2-1.9-0.4-2.8
		c-0.3-1.2-0.7-2.4-0.2-3.6c0.1-0.1,0.1-0.4,0-0.5c-0.2-0.2-0.4-0.5-0.6-0.6c-0.2-0.1-0.6,0.1-0.8,0.3c-0.2,0.3-0.3,0.7-0.4,1.1
		c-0.2,0.6-0.3,1.3-0.6,2c-0.8,1.8-1,3.6-0.9,5.5c0.3,3.3,2,6,4.4,8.2c0.7,0.7,1.5,1.3,2.8,1.3c-0.4,0.4-0.7,0.7-1.1,1
		c-2.7,2-5.4,4-8,6c-2.6,2-5.1,3.9-7.6,6c-0.5,0.4-0.9,0.5-1.4,0.4c-3.1-0.1-6.3-0.1-9.4-0.3c-2.3-0.2-4.5-0.6-6.6-1.6
		c-3.7-1.6-6.1-4.5-8.1-7.8c-1.7-2.8-3.3-5.8-4.9-8.6c-0.2-0.4-0.3-0.8-0.3-1.2c0-2.8,0.1-5.7,0.8-8.4c0.8-2.7,1.5-5.5,2.2-8.2
		c0.4-1.4,0.7-2.7,1.4-4c0.2-0.4,0.3-1,0.4-1.5c0.1-0.7-0.3-1.1-1-1.4C30,95.8,29.4,96,29,96.5c-0.2,0.2-0.4,0.6-0.5,0.9
		c-1.2,2.2-2.3,4.4-3.5,6.6c-0.1-0.3-0.1-0.5,0-0.8c0.4-1.2,0.8-2.4,1.2-3.5c0.9-2.5,1.9-4.9,2.7-7.4c0.5-1.3,0.8-2.7,1.6-3.9
		c0.6-0.9,0.4-1.9-0.3-2.4c-0.8-0.5-1.8-0.3-2.5,0.6c-0.3,0.3-0.5,0.7-0.7,1.1c-0.3,0.4-0.5,0.9-0.9,1.3c-1.7,1.9-2.9,4.1-3.9,6.3
		c-1.9,4.3-3.4,8.8-4.5,13.4c-0.4,1.4-0.6,2.9-0.4,4.3c0.1,0.7,0.2,1.4,0.5,2c0.8,1.6,2.3,1.6,3.1,0.1c0.3-0.6,0.5-1.3,0.7-1.9
		c0.3-0.8,0.6-1.7,0.8-2.5c0.2,0.3,0.1,0.6,0.1,0.8c-0.2,1.6-0.6,3.1-0.6,4.7c-0.1,3.3-0.1,6.7,0,10.1c0,1.2,0.1,2.5,0.3,3.7
		c0.1,1,0.5,2,0.8,3c0.2,0.6,0.6,0.9,1.3,0.9c0.6,0,1-0.4,1.3-0.9c0.2-0.4,0.4-0.9,0.5-1.3c1.1,1.6,2.2,3.2,3.4,4.7
		c2.3,2.9,5,5,8.6,6.1c4,1.2,8.1,1.3,12.3,0.9c0.9-0.1,1.8-0.2,2.9-0.4c-0.6,0.8-1.1,1.4-1.6,2c-1.7,2.2-3.2,4.6-3.9,7.3
		c-0.3,1.2-0.9,2.2-1.6,3.2c-0.6,0.7-1.1,1.5-1.5,2.2c-0.1,0.2-0.2,0.8-0.1,0.9c0.4,0.3,0.7-0.1,0.9-0.4c0.4-0.6,0.9-1.3,1.3-1.9
		c0.8-1.2,1.8-2.2,2.9-3c1.2-0.9,2.4-1.9,3.4-2.9c5-5.1,10.5-9.7,16.4-13.7C71.9,135.2,74.1,133.5,76.2,131.8z"/>
	<path d="M278.4,169.3c2.8,2.8,5.8,5.3,9.1,7.6c2.4,1.7,5.1,3.1,7.9,3.9c3,0.8,6,1.2,9,0.4c1.5-0.4,3-0.7,4.6-0.5c0.1,0,0.3,0,0.4,0
		c0.3-0.2,0.6-0.4,1-0.6c0-0.1-0.1-0.2-0.1-0.3c-0.4,0-0.7-0.1-1.1-0.1c-1.6,0.1-3.1-0.2-4.7-0.7c-4.5-1.3-8.9-3-12.7-5.8
		c-4.5-3.2-8.5-6.8-12.3-10.8c-0.1-0.1-0.1-0.3-0.2-0.5c7.1,0.4,12.4-2.9,17.4-7.3c0.6,1.6,1.8,2,3.2,1.2c0.6-0.4,1.2-0.8,1.6-1.4
		c0.7-1,1.4-2.2,2-3.3c1.2-2.6,1.9-5.4,2.5-8.2c0.6-3.1,0.9-6.1,0.4-9.2c-0.3-1.6-0.5-3.3-0.8-5c-0.1-0.3-0.2-0.7-0.4-0.9
		c-0.4-0.4-0.9-0.5-1.4-0.1c-0.5,0.3-0.6,0.8-0.3,1.2c0.4,0.7,0.2,1.4,0.1,2.1c-0.7,3.7-1.5,7.3-2.3,11c-0.3,1.3-0.6,2.7-1,4
		c-0.9-0.6-1.3-0.6-1.6-0.1c-0.5,1-1.4,1.6-2.1,2.4c-2.5,2.7-5.5,4.8-8.7,6.6c-4.2,2.4-8.7,2.3-13.2,1.4c-0.4-0.1-0.8-0.3-1-0.5
		c-2.1-2.3-4.2-4.7-6.5-7.3c3.4-1.8,5.2-4.6,6.3-8c0.6-1.9,1.1-3.8,0.7-5.8c-0.1-0.7-0.1-1.4-0.2-2.2c0-0.3,0-0.7-0.2-1
		c-0.1-0.2-0.5-0.3-0.8-0.4c-0.1,0.2-0.3,0.5-0.2,0.7c0.3,0.8-0.1,1.5-0.5,2.2c-0.5,0.8-1,1.6-1.3,2.5c-0.4,1-0.8,2-1.2,3
		c-0.7,1.6-1.4,3.1-2.6,4.4c-0.7,0.8-1.3,1.6-2,2.4c-0.1-0.1-0.2-0.2-0.3-0.3c-4.5-4.9-9.6-9.1-15.1-12.8c-1.5-1-2.9-2.1-4.2-3.2
		c-4.6-3.8-7.1-8.6-7.2-14.7c0-0.3,0-0.6,0.1-0.9c0.5-2,1-3.9,1.4-5.9c1-6,2.5-11.9,4.7-17.5c2.7-6.9,6.1-13.5,9.9-19.9
		c3.4-5.7,7.1-11.3,10.6-16.9c2.9-4.6,5.8-9.1,8.6-13.8c1.8-3,3.5-6,5.8-8.6c0.1-0.1,0.2-0.2,0.2-0.3c0.2-0.4,0.3-0.7,0-1.1
		c-0.3-0.3-0.7-0.3-1,0c-0.4,0.3-0.7,0.7-1,1.1c-1.3,1.5-2.5,3.1-3.9,4.6c-1.3,1.5-2.8,2.8-4.1,4.2c-5.8,6.7-11,13.9-15.8,21.3
		c-4.2,6.5-7.9,13.3-11.3,20.3c-3.2,6.7-5.6,13.7-6.8,21c-0.1,0.3-0.2,0.7-0.4,0.8c-1,0.5-1.2,1.4-1.3,2.4
		c-0.2,3.6-0.5,7.1-0.6,10.7c0,1.4,0.2,2.8,0.5,4.2c0.9,4.4,3.2,8,6.4,11.1c0.3,0.3,0.6,0.6,1,0.9c-0.2,0.2-0.3,0.3-0.4,0.4
		c-0.8,0.8-0.7,1.5,0.3,2c0.3,0.1,0.6,0.2,1,0.3c3.4,0.8,6.6,2.3,9.3,4.5c1.5,1.2,3,2.6,4.3,4c4.6,5,9,10,13.5,15
		C272.2,162.7,275.3,166,278.4,169.3z"/>
	<path d="M247.8,173.7c-0.8-0.8-1.7-1.6-2.4-2.5c-1.2-1.4-2.7-2.2-4.3-3c-1-0.5-2.1-0.8-3.2-0.9c-4.2-0.6-7.7,1.1-10.6,3.9
		c-1.8,1.8-3.2,3.9-4.2,6.3c-0.5,1.3-0.9,2.6-1.1,4c-0.2,1.7-0.2,3.4-0.3,5.1c0.1,3.1-0.2,6.2,0.9,9.2c1.5,4.1,4.2,6.9,8.5,8
		c1,0.3,2,0.3,3.1,0.4c4.9,0.5,8.9-1.1,11.8-5.1c0.8-1.1,1.7-2.3,2.5-3.5c3.2-4.7,3.5-10,3-15.3
		C251.2,177.7,249.6,175.6,247.8,173.7z"/>
	<path d="M111,187c-0.1-1.5-0.2-3.1-0.2-4.6c-0.1-1.4-0.4-2.8-0.9-4.1c-0.9-2.2-2.2-4.1-3.7-6c-1.8-2.3-4.2-3.7-6.9-4.4
		c-4.1-1.1-7.7,0.2-10.9,2.8c-1.6,1.3-3,3-4.4,4.5c-1.5,1.7-2.6,3.7-2.7,6c-0.1,2.1-0.1,4.3,0.1,6.4c0.2,1.6,0.5,3.3,1.1,4.7
		c1.4,3.5,3.5,6.5,6.2,9.1c1.8,1.7,3.9,2.8,6.4,3c1.7,0.1,3.4,0.1,5.1-0.1c4.5-0.5,7.6-3,9.5-7c1-2.1,1.5-4.3,1.4-6.6
		C110.9,189.5,111,188.3,111,187C111,187,111,187,111,187z"/>
	<path d="M9.1,154.5c0.4,0.7,0.6,1.4,0.8,2c1.3,3.3,2.8,6.4,5.5,8.7c0.5,0.4,0.8,1.2,1.2,1.8c0.4,0.7,0.9,1.1,1.6,0.9
		c0.6-0.2,1.1-1,0.9-1.7c-0.1-0.4-0.3-0.7-0.5-1c-0.2-0.4-0.5-0.7-0.7-1.1c-1.1-2.8-2.3-5.6-3.3-8.4c-0.5-1.3-0.9-2.6-1-4
		c-0.2-3.8-0.3-7.6-0.3-11.3c-0.1-4.9-0.1-9.7-0.1-14.6c0-0.3,0-0.6,0.1-0.9c0.3-4.5,0.8-8.9,0.9-13.4c0.2-10,0.2-19.9-1.5-29.8
		c-1-6-2.4-12-4.8-17.6c-0.2-0.4-0.4-0.8-0.8-1.2C7.1,64.4,7,65.8,7,67.2v95.8C7.7,160.2,8.4,157.4,9.1,154.5z"/>
	<path d="M323.3,103c0-0.5,0-1,0-1.4c-0.1,0-0.2,0-0.3,0c-2.8,7.1-3.6,14.5-4.4,21.8c-0.1-1.1-0.3-2.4-0.4-3.7
		c-0.3-2.3-1.7-4-2.9-5.8c-0.4-0.6-1-0.7-1.6-0.5c-0.6,0.3-0.9,0.9-0.8,1.6c0.1,0.5,0.2,1.1,0.3,1.6c0.5,2.6,0.9,5.2,1.4,7.9
		c0.1,0.6,0.4,1.1,0.8,1.6c0.7,0.8,1.8,0.7,2.4-0.2c0.2-0.3,0.3-0.6,0.6-1c0,0.7,0,1.1,0,1.5c0,7.1,0,14.3,0,21.4
		c0,4.1,0.6,8.1,1.9,11.9c0.8,2.2,0.6,4.1-0.4,6.1c-2.2,4.4-4.3,8.9-6.4,13.4c-0.2,0.3-0.3,0.7-0.5,1.1c1.9,0.2,3.4-0.6,4.9-1.5
		c0.6-0.4,1.1-0.9,1.4-1.6c0.9-2.3,2-4.6,2.9-6.9c0.2-0.5,0.3-1.2,0.3-1.7c0-10-0.1-19.9,0.1-29.9C322.7,126.6,323,114.8,323.3,103z
		"/>
	<path d="M211.9,312.6c0.2-0.2,0.4-0.3,0.6-0.5c0.3-0.4,0.4-0.9,0.8-1.2c1.7-1.3,2.7-3.2,3.7-5.1c0.4-0.8,0.9-1.3,1.7-1.6
		c1.2,0.7,1.7,0.6,2.6-0.5c0.1-0.1,0.2-0.3,0.3-0.4c0.9-1.1,1.8-2.3,2.9-3.3c5.3-4.5,10.3-9.4,14.7-14.8c1.6-1.9,3.1-4,4.2-6.3
		c0.7-1.5,1.6-2.9,2.4-4.4c0.1-0.3,0.3-0.5,0.5-0.8c0.2-0.4,0.5-0.9-0.1-1.2c-0.6-0.3-0.8,0.3-1,0.7c-0.8,1.1-1.5,2.3-2.4,3.3
		c-1.5,1.7-3.1,3.2-4.6,4.9c-4.2,4.7-8.4,9.3-13.1,13.4c-0.3,0.2-0.6,0.5-0.8,0.7c-0.3-0.5-0.5-0.9-0.8-1.3c-0.8-1-2.1-1-2.9,0
		c-0.4,0.4-0.6,1.1-0.7,1.6c-0.1,0.7,0,1.4,0,2.1c0,1.5-0.2,1.8-1.7,2.4c-0.1-0.5-0.2-0.9-0.3-1.4c-0.1-0.4-0.4-0.9-0.8-0.8
		c-0.3,0.1-0.6,0.5-0.8,0.9c-0.1,0.2-0.2,0.6-0.2,0.9c-0.1,0.6-0.1,1.1-0.2,1.7c-0.1,0.5-0.2,1.1-0.5,1.4c-0.9,0.8-1.9,1.5-3.1,2.4
		c0-1.4,0.1-2.5,0-3.6c-0.1-0.6-0.3-1.3-0.6-1.8c-0.5-0.8-1.4-0.8-1.9,0c-0.3,0.6-0.6,1.3-0.6,1.9c-0.1,2.2-0.5,4.3-1.2,6.4
		c-0.3,1-0.6,2-0.7,3c-0.1,0.6-0.1,1.2-0.1,1.9c1.9-0.3,2.2-0.7,4.8-6.4c0.6,0,1.2-0.1,1.7-0.1c-0.6,1.9-1.2,3.8-1.8,5.7
		C211.7,312.5,211.8,312.5,211.9,312.6z"/>
	<path d="M148.4,207.6c-1.2,0.1-2.5,0.2-3.6,1c-0.5,0.3-0.7,0.7-0.4,1.3c0.4,0.9,0.7,1.2,1.8,1.3c0.7,0.1,1.4,0.2,2.1,0.3
		c0.2,0,0.3,0,0.5-0.1c0.5-0.1,1-0.2,1.5-0.2c3.3,0,6.5,0,9.8,0c2,0,3.9-0.1,5.9-0.5c1.1-0.2,2.3-0.2,3.4-0.1
		c1.4,0.1,1.8-0.3,1.5-1.6c0-0.1,0-0.2,0-0.2c2.2-0.2,4.3-0.2,6.3-0.5c1.1-0.1,2.2-0.3,3.3,0c0.1,0,0.3,0,0.5,0
		c0-0.7-0.4-0.8-0.9-0.9c-0.6-0.1-1.2-0.1-1.8-0.2c-3.9-0.6-7.8-1.2-11.7-1.9c-3.3-0.6-6.6-1.2-9.8-1.9c0.2-0.2,0.4-0.2,0.6-0.2
		c3.2,0.1,6.4,0.2,9.5,0.2c1.7,0,3.3-0.2,5-0.4c0.7-0.1,1.4-0.2,2.1,0.3c0.4,0.3,0.9,0.2,1.1-0.2c0.2-0.3,0.3-0.8,0.2-1.2
		c-0.1-0.6-0.7-0.8-1.3-0.9c-1.3-0.1-2.6-0.4-3.8-0.4c-2.9-0.1-5.8-0.2-8.8-0.2c-1.8,0-3.7,0.3-5.5,0.4c-0.7,0-1.3,0.2-1.6,0.9
		c-0.2,0.7,0.5,0.9,0.9,1.4c-0.7,0-1.4-0.1-2.1,0c-1.1,0.1-1.6,0.5-1.6,1.1c0,0.6,0.4,1,1.5,1.3c2.3,0.5,4.7,1,7,1.5
		c0,0.1,0,0.1,0,0.2c-0.5,0-1,0-1.5,0C155.4,207.3,151.9,207.4,148.4,207.6z"/>
	<path d="M203.1,223.7c-0.8-1.1-1.9-2.1-2.9-3.1c-3.3-3.2-7.1-5.6-11.1-7.9c-2.7-1.6-5.5-2.7-8.6-3.2c-1-0.1-1.8,0.1-2.8,1
		c0.7,0.4,1.1,0.6,1.6,0.9c0.9,0.5,1.9,0.8,2.8,1.4c2.2,1.3,4.4,2.7,6.5,4.1c0.5,0.3,1.1,0.7,1.5,1.1c0.7,0.6,1.3,1.2,2,1.8
		c2,1.6,4.1,3.1,6.2,4.7c4.8,3.7,9.4,7.5,12.9,12.5c1.4,2,3.1,4,3.3,6.6c0,0.2,0.3,0.5,0.5,0.5c0.2,0,0.6-0.1,0.6-0.3
		c0.1-0.4,0.3-0.9,0.2-1.4c-0.5-2.2-1.1-4.4-2.5-6.3c-0.2-0.2-0.5-0.5-0.4-0.8c0.1-0.9-0.4-1.5-0.9-2c-1.4-1.6-2.7-3.3-4.3-4.8
		C206.1,226.8,204.4,225.5,203.1,223.7z"/>
	<path d="M36.6,297.9c0.4-2.8,1.2-5.6,1.8-8.4c0.1-0.7,0.2-1.4,0.1-2c0-0.6-0.4-0.9-0.9-1.1c-0.5-0.2-0.9,0-1.3,0.4
		c-0.3,0.3-0.5,0.6-0.6,1c-1.1,2-2,4.2-2.5,6.5c-0.6,2.7-1.2,5.4-1.7,8.2c-0.6,3.3-1,6.6-1.5,9.8c1.4,1.1,2.8,2.1,4.2,3.1
		C35,309.5,35.7,303.7,36.6,297.9z"/>
	<path d="M323.8,56.9c-1.1-2.9-2.3-5.7-3.4-8.5c-0.1-0.1-0.2-0.2-0.5-0.5c0,2.7,0,5.1,0,7.6c0,4.6-0.3,9.2-1,13.7
		c-0.5,3-1.2,6.1-1.7,9.1c-0.2,1.3-0.3,2.6-0.4,4c0,0.4,0.3,0.8,0.5,1.5c0.5-0.4,0.9-0.7,1.2-1c1.1-1.1,1.5-2.5,2-3.8
		c2.3-6.2,3.4-12.7,3.7-19.3C324.3,58.8,324.2,57.8,323.8,56.9z"/>
	<path d="M52.8,81.5c0.3,0.8,1.1,1.2,2.1,1c0.6-0.1,1.2-0.2,1.8-0.1c2.3,0.5,4.6,0.4,6.9,0.5c3.3,0.2,6.6,0.4,9.9,0.7
		c1.1,0.1,2.1,0.3,3.2,0.4c1.2,0.1,2.2-0.4,2.5-1.4c0.2-0.9-0.3-1.8-1.3-2.4c-0.4-0.2-0.8-0.3-1.2-0.5c-4.2-1.5-8.5-2-13.9-2
		c-2.3-0.2-5.5,0.4-8.7,1.7C52.9,79.8,52.5,80.6,52.8,81.5z"/>
	<path d="M249.7,272c0,0.5,0.2,0.9,0.7,0.9c0.3,0,0.8-0.2,0.9-0.5c0.3-0.5,0.4-1.1,0.5-1.7c0.1-0.7,0.2-1.4,0.3-2.2
		c0.1-1.1,0.2-2.1,0.4-3.2c0.1-0.5,0.1-1,0.3-1.3c0.8-1.3,1-2.7,1-4.2c0-1.8-0.2-3.5-0.8-5.3c-0.7-2-1.8-3.7-3.3-5.1
		c-1.2-1.1-2.3-2.2-3.5-3.2c-1-0.9-2.1-1.6-3.2-2.4c-0.4-0.3-1-0.5-1.5-0.6c-0.9-0.1-1.5,0.2-1.8,0.8c-0.3,0.7,0.1,1.3,0.5,1.7
		c0.7,0.7,1.4,1.3,2.1,1.9c2.4,2.1,4.7,4.1,7.1,6.2c0.3,0.3,0.7,0.5,0.8,0.8c0.3,1.2,0.7,2.4,0.2,3.6c-0.1,0-0.2,0.1-0.2,0.1
		c-1.5-0.1-2,0.4-1.9,1.9c0,0.3,0.1,0.7,0.2,1c0.2,1.2,0.4,2.5,0.7,3.7c0.3,1.1,0.1,2-0.8,2.8c-0.2,0.1-0.2,0.4-0.4,0.7
		c0.1,0.1,0.1,0.1,0.2,0.2c0.4-0.2,0.8-0.5,1.2-0.7c0.5,1,0.6,2.1,0.4,3.1C249.8,271.3,249.8,271.7,249.7,272z"/>
	<path d="M259.6,83.5c0.5-1.4-0.5-2.6-2-2.6c-0.9,0-1.5,0.5-1.9,1.2c-0.6,1.1-1.2,2.2-1.8,3.3c-2.3,4.7-3.9,9.8-5.4,14.8
		c-0.4,1.4-0.8,2.7-1,4.1c-0.3,2.2-0.4,4.4-1.4,6.4c-0.2,0.5-0.2,0.9,0.3,1.2c0.5,0.3,0.9,0,1.2-0.4c0.3-0.7,0.6-1.4,0.9-2.1
		c0.4-1,0.7-1.9,1.1-2.9c1.1-2.6,2.4-5,3.4-7.6c1.9-5,3.6-10.2,6.5-14.8C259.5,83.8,259.6,83.6,259.6,83.5z"/>
	<path d="M318.8,233.4c-3.3-3.9-6.6-7.8-10.5-11.1c-0.4-0.4-0.8-0.8-1.3-1c-0.3-0.1-0.9-0.1-1.2,0.1c-0.4,0.2-0.3,0.7-0.2,1.2
		c0.1,0.3,0.3,0.5,0.5,0.8c1.3,1.8,2.5,3.6,3.9,5.3c4.6,5.7,8.8,11.6,12.4,18c0.3,0.5,0.6,0.9,0.9,1.4c0.1,0,0.2,0,0.3,0
		c0.3-1.9,0.6-3.7,0.9-5.6c0.2-0.9-0.1-1.7-0.6-2.4C322.2,237.8,320.6,235.6,318.8,233.4z"/>
	<path d="M116.6,239.3c0.2-0.1,0.5-0.1,0.7-0.3c1-0.7,2-1.3,2.9-2.1c2.8-2.6,5.4-5.3,8.2-7.8c3.3-3,6.7-5.9,10.2-8.7
		c2-1.6,3.9-3.2,6.5-3.9c0.2-0.1,0.4-0.2,0.5-0.3c0.1-0.1,0.1-0.4,0.1-0.6c0-0.1-0.3-0.2-0.4-0.2c-0.2,0-0.5,0.1-0.7,0.2
		c-0.7,0.3-1.4,0.6-2.2,0.8c-3.9,0.8-7.2,2.7-10.3,5c-4,2.9-7.6,6.3-11,9.9c-1.5,1.6-2.9,3.3-4.2,5c-0.5,0.6-0.7,1.4-1,2.2
		C115.7,238.9,116,239.2,116.6,239.3z"/>
	<path d="M80.6,95.6c0.2-0.9,0-1.7-0.4-2.5c-0.7-1.3-1.8-2.3-3.1-3c-2.8-1.6-5.8-2.4-9.6-2.5c-1.6-0.2-3.4,0.7-5.3,1.4
		c-0.8,0.3-1.1,1.1-0.9,1.8c0.2,0.7,0.7,1,1.6,1.1c0.5,0,1.1,0.2,1.6,0.3c0.6,0.1,1.2,0.3,1.9,0.4c4.1,0.6,8.1,1.5,11.3,4.4
		C78.8,97.8,80.3,97.1,80.6,95.6z"/>
	<path d="M254.2,120.1c0.1,0.9,0.4,1.3,1.1,1.3c0.6,0,0.9-0.5,1-1.3c0.1-0.9,0.3-1.8,0.5-2.6c0.1-0.4,0.2-0.8,0.3-1.3
		c0.5-2.3,0.9-4.7,1.7-7c1.3-3.7,2.8-7.4,4.2-11c0-0.1,0.1-0.2,0.1-0.2c0.3-0.8,0.1-1.4-0.4-1.8c-0.5-0.4-1.4-0.4-1.9,0.1
		c-0.6,0.6-1.2,1.2-1.6,2c-1.7,3.2-3.2,6.5-4.2,9.9c-0.7,2.2-1.2,4.5-1.3,6.8c0.1,0.9,0.1,1.7,0.2,2.6
		C253.9,118.3,254.1,119.2,254.2,120.1z"/>
	<path d="M103.5,244c-4.1-0.6-8-0.4-11.9,0.9c-3.1,1.1-5.9,2.6-8.3,4.8c-0.7,0.7-1.3,1.4-1.3,2.6c0.4-0.1,0.6-0.1,0.8-0.2
		c3.5-1.1,6.9-2.2,10.4-3.3c2.5-0.8,5-1.2,7.6-1.2c1.4,0,2.7-0.2,4.1-0.4c1-0.2,1.6-0.8,1.5-1.6c0-0.8-0.7-1.4-1.7-1.5
		C104.3,244.1,103.9,244.1,103.5,244z"/>
	<path d="M284.9,298.5c-0.5-0.4-1.2-0.3-1.7,0.1c-0.4,0.4-0.5,1-0.1,1.7c0.1,0.3,0.3,0.5,0.5,0.7c0.6,0.9,1.3,1.7,1.9,2.6
		c2.8,3.9,5.5,7.8,7.5,12.2c0.1,0.2,0.2,0.4,0.4,0.6c1.6-0.5,3.2-0.8,4.2-2.5c-2.6-5-5.8-9.5-9.8-13.4
		C286.9,299.7,285.8,299.1,284.9,298.5z"/>
	<path d="M19,85c-0.5,1.2-0.7,2.5-1,3.7c0.1,0,0.1,0,0.2,0c0,0.1,0,0.3,0,0.4c0,1.4,0.6,2.2,1.6,2.3c0.9,0.1,1.6-0.5,2-1.8
		c0.5-1.5,1-3.1,1.6-4.6c1.3-2.7,2.7-5.3,4.1-8c0.5-0.9,0.9-1.9,1.3-2.9c0.2-0.4,0.5-0.8,0.7-1.2c0.2-0.2,0.4-0.5,0.5-0.7
		c0.3-0.7-0.2-1.3-0.9-1.1c-0.3,0.1-0.6,0.3-0.8,0.5c-0.4,0.3-0.7,0.8-1.2,1c-1.8,0.8-2.9,2.2-3.9,3.8C21.5,79.1,20.2,82,19,85z"/>
	<path d="M118.9,170.4c-0.2,0.5-0.5,1-0.9,1.4c-0.5,0.5-0.6,1.1-0.4,1.7c0.1,0.5,0.3,1,0.6,1.4c0.9,1.4,1.9,2.9,2.9,4.3
		c0.2,0.3,0.4,0.5,0.7,0.8c0.7,0.6,1.4,0.6,2,0.2c0.6-0.4,1-1.2,0.7-2c-0.1-0.4-0.4-0.9-0.6-1.2c-1.3-1.7-2.6-3.3-3.9-5
		c0.2-0.1,0.6-0.3,0.9-0.5c1.3,1.2,2.5,2.4,3.8,3.7c0.5-0.4,1-0.6,1.3-1.1c0.4-0.9-0.3-1.6-0.6-2.4c1-0.7,1.2-1.1,0.7-1.9
		c-0.7-1-1.4-2-2.2-2.8c-1.2-1.2-2.6-2.3-3.9-3.3c-0.4-0.3-0.9-0.5-1.4-0.6c-0.7-0.1-1,0.2-0.8,0.9c0.2,0.6,0.4,1.1,0.8,1.6
		c1,1.1,2.1,2.1,3.3,3.3C120.4,168.6,119.5,169.2,118.9,170.4z"/>
	<path d="M324,194c0.2-1.5,0.3-3,0.4-4.6c-0.5,0.2-0.8,0.3-1.1,0.4c-1.5,0.7-3.1,1.4-4.6,2c-1.7,0.8-3.5,1.3-5.5,1.2
		c-1.4-0.1-2.9-0.2-4.3-0.3c-1-0.1-1.6,0.2-2,0.8c-0.4,0.7-0.2,1.6,0.4,2.3c0.3,0.3,0.6,0.6,0.9,0.7c0.6,0.3,1.2,0.6,1.9,0.7
		c2,0.4,4,0.4,6,0.1c2.7-0.4,5-1.6,7.4-2.8C323.8,194.6,324,194.3,324,194z"/>
	<path d="M278.1,213.4c0.3,0.1,0.9,0,1.2-0.2c0.3-0.2,0.5-0.7,0.6-1.1c0.2-0.5,0.4-1,0.7-1.5c0.5-1,1.1-1.9,1.5-3
		c0.9-2.4,1.8-4.8,2.6-7.3c0.4-1.2,0.5-2.5,0.8-3.5c-0.1-1-0.2-1.8-0.4-2.5c-0.2-1-1-1.6-1.9-1.6c-0.8,0-1.6,0.6-1.8,1.6
		c-0.1,0.4-0.2,0.8-0.2,1.3c0,1.7-0.3,3.2-0.9,4.8c-1.5,3.8-2,7.9-2.9,11.8c0,0.1-0.1,0.3,0,0.4
		C277.6,212.8,277.8,213.3,278.1,213.4z"/>
	<path d="M305.8,298.1c-1.4-0.5-3-0.7-4.3-1.6c-0.2-0.2-0.6-0.2-0.9-0.2c-1.7-0.1-3.4-0.2-5.1-0.3c-0.3,0-0.6,0-1,0
		c0.3,1,1,1.5,1.6,2.1c2.9,2.4,5.7,4.9,8.2,7.8c0.2,0.2,0.2,0.5,0.4,0.8c2.2-2.3,4.2-4.4,6.4-6.6
		C309.2,299.3,307.5,298.7,305.8,298.1z"/>
	<path d="M17.9,39.5c0-0.3,0.2-0.6,0.2-0.9c0.1-0.6-0.1-1.1-0.7-1.4c-0.5-0.3-1.1-0.3-1.6,0.1c-0.4,0.3-0.7,0.6-0.9,1.1
		c-0.4,0.8-0.7,1.7-0.9,2.5c-0.6,2.6-0.7,5.3-0.8,7.6c0.1,1.8,0.1,3.2,0.2,4.7c0.2,1.5,0.5,3.1,0.9,4.5c0.5,1.5,1.2,2.9,1.1,4.6
		c0,0.2,0.3,0.7,0.6,0.7c0.2,0,0.7-0.3,0.7-0.5c0.1-0.5,0.1-1.1,0.1-1.6c-0.1-1.3-0.4-2.6-0.4-3.8c0.1-3.9,0.2-7.8,0.5-11.7
		C17.2,43.3,17.6,41.4,17.9,39.5z"/>
	<path d="M7,200.8c4.1-2.3,8.2-4.7,12.3-7c0.5-0.3,1-0.6,1.5-1c0.7-0.7,0.7-1.1-0.2-1.5c-0.6-0.2-1.3-0.3-2-0.3
		c-0.6,0-1.2,0.3-1.7,0.5c-3.4,1.3-6.6,2.9-9.8,4.7V200.8z"/>
	<path d="M286.1,216.5c0.9-2.7,1.4-5.6,1.7-8.5c-0.2-0.8-0.3-1.7-0.7-2.4c-0.4-0.9-1.4-0.9-1.9-0.1c-0.3,0.4-0.4,0.9-0.6,1.4
		c-1.5,4.9-2.9,9.8-4.3,14.7c-0.2,0.8-0.5,1.6-0.6,2.4c-0.2,0.8,0.2,1.5,0.8,1.7c0.6,0.2,1.2,0.1,1.7-0.6c0.5-0.6,1-1.3,1.3-2
		C284.5,220.9,285.4,218.8,286.1,216.5z"/>
	<path d="M22.3,176.6c0.1,0.1,0.5-0.2,0.6-0.3c0.1-0.2-0.1-0.5-0.2-0.6c-0.2-0.2-0.6-0.4-0.8-0.6c-0.9-0.9-1.6-1.9-2.6-2.7
		c-2.8-2.4-5.2-5.1-6.7-8.5c-0.3-0.7-0.9-1.2-1.7-1.1c-0.8,0.1-1.5,0.5-1.7,1.3c-0.2,0.4-0.2,0.9-0.3,1.5c0.2,0.6,0.4,1.3,0.7,2
		c0.4,0.9,1,1.7,1.5,2.5c1.6,2.3,3.6,4.2,6,5.8c1.1,0.7,2.3,1.3,3.6,1C21.2,176.6,21.7,176.3,22.3,176.6z"/>
	<path d="M28,298.2c1.1-2.7,2.2-5.5,3.2-8.3c0.2-0.4,0.3-0.8,0.3-1.2c0-0.3-0.2-0.8-0.4-0.9c-0.3-0.1-0.7,0-1.1,0.1
		c-0.2,0.1-0.4,0.4-0.6,0.7c-0.8,1.2-1.5,2.5-2.2,3.8c-2,3.9-3.7,7.9-5.3,12c0.8,0.9,1.6,1.8,2.5,2.7
		C25.6,304.1,26.8,301.2,28,298.2z"/>
	<path d="M262,130.3c0.5,0.2,0.8-0.1,1-0.5c0.1-0.1,0.1-0.2,0.2-0.3c0.2-1,0.5-1.9,1.1-2.7c0.2-0.3,0.2-0.6,0.3-1
		c0.2-1.4,0.3-2.7,0.6-4.1c0.5-2.1,1.2-4.1,1.8-6.2c0.2-0.7,0.3-1.3,0.5-2c0,0-0.1,0-0.1,0c0-0.2,0-0.3,0-0.5
		c-0.1-1-0.6-1.7-1.5-1.9c-0.8-0.2-1.6,0.2-2.1,1.1c-0.2,0.3-0.3,0.5-0.4,0.8c-0.5,1.3-1,2.5-1.5,3.8c-0.8,2.1-1.3,4.4-1.2,6.7
		c0.1,1.3,0.1,2.6,0.8,3.7c0.4,0.7,0.7,1.3,0.3,2C261.5,129.6,261.5,130.1,262,130.3z"/>
	<path d="M278.4,321.9c0-0.3,0-0.5-0.1-0.7c-0.4-1.4-0.7-2.8-1.1-4.2c-0.6-2.2-1.3-4.4-1.5-6.6c0-0.5-0.3-1.1-0.5-1.6
		c-0.3-0.6-0.9-0.6-1.2-0.1c-0.2,0.2-0.3,0.5-0.4,0.8c-0.2,1-0.5,1.9-0.7,2.9c-0.5,4.1-1.2,8.2-2.4,12.2c0,0.1,0,0.3,0,0.5
		c0,0,0.1,0,0.1,0C273.4,324.1,275.9,323,278.4,321.9z"/>
	<path d="M54.6,206.8c-1.5-2.7-3.1-5.4-4.6-8.2c-0.3-0.5-0.5-1-0.9-1.4c-0.3-0.4-0.6-0.8-1-1.1c-0.3-0.2-0.8-0.3-1-0.4
		c-1.3,0-2.2,0.9-2.1,2.1c0.1,0.8,0.3,1.6,0.7,2.3c1.9,3.5,4,6.8,6.3,10c0.6,0.9,1.6,1.1,2.5,1.5c0.2,0.1,0.7-0.2,0.8-0.4
		c0.2-0.4,0.4-1,0.3-1.4C55.4,208.7,55.1,207.7,54.6,206.8z"/>
	<path d="M40.3,309.7c0.1-1.1,0.1-2.1,0.1-3.2c0-0.9-0.4-1.4-1.1-1.6c-0.7-0.2-1.4,0.1-1.8,0.9c-0.3,0.5-0.5,1.1-0.6,1.7
		c-0.3,1.9-0.5,3.8-0.7,5.7c-0.1,1.1-0.1,2.2-0.2,3.2c1.1,0.7,2.3,1.3,3.5,2C39.9,315.6,40.1,312.7,40.3,309.7z"/>
	<path d="M17.8,201.5c0.4-0.4,0.8-0.9,1.1-1.4c0.3-0.4,0.5-0.8,0.2-1.3c-0.4-0.5-0.9-0.4-1.4-0.2c-0.6,0.3-1.3,0.7-1.9,1.1
		c-3.2,2.6-6.1,5.6-8.7,8.7v4.4C10.5,208.9,14.1,205.2,17.8,201.5z"/>
	<path d="M308.3,141.9c0.6,0.2,1.1,0.1,1.5-0.3c0.3-0.3,0.6-0.6,0.8-1c0.4-0.8,0.8-1.7,1-2.6c0.9-3.5,1.1-7.1,0.8-10.7
		c-0.1-1.9-1.1-3.2-2-4.7c0,0-0.2,0-0.2,0c0.2,0.8,0.2,0.8-0.3,1.6c-0.3,0.4-0.5,0.9-0.6,1.4c-0.2,1-0.4,2-0.4,3.1
		c-0.1,2.9-0.4,5.8-1,8.7c-0.2,1.1-0.3,2.2-0.3,3.3C307.5,141.2,307.8,141.7,308.3,141.9z"/>
	<path d="M50.5,221c0.4-0.5,0.4-1.1,0.1-1.7c-1.1-2.3-2.3-4.6-3.4-6.9c-0.4-0.9-0.7-1.8-1-2.8c-0.1-0.3-0.2-0.6-0.4-1
		c-0.5-1.1-1.3-1.7-2.2-1.5c-1,0.2-1.6,1-1.6,2.6c0.1,0.4,0.1,1.2,0.4,1.8c0.8,2,1.5,4,2.5,5.9c0.8,1.8,2.2,3.2,4.2,3.7
		C49.6,221.4,50.1,221.5,50.5,221z"/>
	<path d="M221.7,168.9c0.3-0.4,0.5-0.9,0.1-1.4c-0.4-0.5-1-0.3-1.4-0.1c-0.2,0.1-0.5,0.2-0.7,0.3c-0.7,0.6-1.5,1.2-2,1.9
		c-1.2,1.6-2.2,3.3-3.3,4.9c-0.7,1.2-0.6,1.7,0.6,2.6c-0.6,1.6,0.6,3,2.7,2.5c0.3-0.1,0.6-0.3,0.9-0.4c1.5-0.6,2.6-1.9,3.9-2.9
		c0.4-0.3,0.5-0.8,0.2-1.3c-0.3-0.5-0.7-0.8-1.3-0.6c-1.3,0.4-2.7,0.4-3.9,1.2c-0.1,0.1-0.3,0.1-0.6,0.1c0.4-0.6,0.7-1,1-1.4
		C219.2,172.5,220.5,170.7,221.7,168.9z"/>
	<path d="M274.9,200.1c0.5,0.3,1.1,0.1,1.6-0.5c0.1-0.1,0.2-0.3,0.3-0.4c0.4-0.6,0.7-1.2,1.2-1.7c2.1-2.4,2.8-5.3,3.3-7.9
		c0-2-0.8-3.2-2.1-3.4c-1.2-0.1-2.4,0.9-2.7,2.4c-0.2,1.2-0.5,2.4-0.7,3.5c-0.3,1.6-0.7,3.1-0.5,4.7c0.1,0.6,0,1.2-0.4,1.7
		C274.3,199.3,274.4,199.8,274.9,200.1z"/>
	<path d="M74.4,99.5c-0.3-0.5-0.8-0.8-1.2-1.1c-0.4-0.3-0.9-0.4-1.4-0.6c-0.8,0-1.5,0.3-2,0.9c-0.4,0.4-0.6,0.9-0.3,1.4
		c1.4,2.9,3,5.8,5.2,8.2c0.3,0.3,0.7,0.6,1,0.8c1.6,0.8,3-0.2,2.8-1.9c-0.1-0.7-0.2-1.4-0.6-2C76.8,103.2,75.6,101.3,74.4,99.5z"/>
	<path d="M59.4,71.9c3.5-1.7,7.2-2.8,11.2-2.7c0.9,0,1.7-0.4,2.6-0.7c0.5-0.2,0.9-0.5,1.4-0.9c-0.3-0.2-0.7-0.3-0.9-0.6
		c-0.6-0.8-1.6-1-2.5-1.1c-3.9-0.5-7.6,0.2-11.1,2.1c-0.8,0.4-1.6,1.1-2.3,1.7c-0.6,0.6-0.7,1.3-0.3,1.8
		C58,72.1,58.6,72.3,59.4,71.9z"/>
	<path d="M46.2,230.2c0.9,0.3,1.6-0.1,1.8-1.2c-0.3-1-0.5-2.2-1.1-3.1c-1.3-2.2-2.7-4.3-4.1-6.4c-0.6-0.9-1.4-1.2-2.2-0.9
		c-0.9,0.3-1.5,1.1-1.6,2.1c-0.1,0.8,0.2,1.5,0.7,2.2c1,1.6,2.1,3.1,3.1,4.7C43.6,228.8,44.7,229.7,46.2,230.2z"/>
	<path d="M320.9,209.6c-2.6-0.9-5.1-1.9-7.7-2.7c-1.1-0.3-2.3-0.3-3.4-0.3c-0.4,0-0.8,0.3-1.3,0.5c0.2,0.3,0.3,0.5,0.4,0.7
		c0.8,1,1.9,1.6,3,2.2c3.1,1.7,6.3,3.3,9.4,4.9c0.1,0,0.2,0,0.4,0c0-1.3,0-2.6,0.1-3.9C321.9,210.2,321.6,209.8,320.9,209.6z"/>
	<path d="M82.6,201.6c0.6,0.1,1.1-0.5,0.8-1.1c-0.7-1.1-1.3-2.3-2.1-3.3c-1.1-1.6-2.5-2.9-2.9-5c0-0.2-0.2-0.4-0.3-0.6
		c-0.6-1-1.6-1.2-2.5-0.6c-0.9,0.6-1.4,1.4-1.4,2.4c0,0.1,0,0.2,0,0.3c0.4,2.5,2,4.2,3.6,6C79.1,201.1,80.8,201.3,82.6,201.6z"/>
	<path d="M286,232.4c0.2-0.2,0.6-0.3,0.6-0.5c0.2-0.6,0.5-1,1-1.4c0.3-0.2,0.5-0.5,0.6-0.8c0.9-2.1,1.8-4.1,2.7-6.3
		c0.3-0.7,0.3-1.5,0.4-2.3c0,0,0,0-0.1,0c0-0.4,0-0.8-0.1-1.2c-0.1-0.4-0.1-0.8-0.2-1.3c-0.3-1-0.9-1.7-1.6-1.6
		c-0.7,0-1.2,0.6-1.5,1.6c-0.1,0.4-0.2,0.8-0.2,1.1c-0.1,1.8-0.6,3.5-1.3,5.2c-0.3,0.6-0.5,1.2-0.6,1.8c-0.2,0.9-0.4,1.9-0.3,2.8
		c0,0.7,0.4,1.3,0.2,2C285.6,231.8,285.9,232.1,286,232.4z"/>
	<path d="M324.9,179.7c-1.1,0.9-2.3,1.7-3.4,2.6c-2,1.6-3.9,3.2-6.6,3.6c-1,0.1-1.5,0.8-1.5,1.7c0,0.8,0.6,1.4,1.6,1.6
		c1.4,0.3,2.8,0.1,4.1-0.5c2.1-1,3.8-2.5,5.3-4.2c0.2-0.2,0.4-0.4,0.4-0.7V179.7z"/>
	<path d="M217.2,163.1c-2.4,2.3-4.2,5-5.7,7.9c-0.3,0.6-0.7,1.3-0.8,2c-0.1,0.9-0.1,1.8,0,2.7c0.1,0.6,0.5,1,1.2,1
		c0.7,0,1.1-0.4,1.2-1c0.5-2.9,2.2-5.2,3.8-7.5c1.1-1.7,2.2-3.3,3.2-5c0.4-0.6,0.6-1.2,1-2.1c-0.5,0.1-0.8,0-0.9,0.1
		C219.1,161.8,218,162.3,217.2,163.1z"/>
	<path d="M54.1,201.3c0.8-0.5,0.9-1.1,0.9-1.8c0.2-2.6-0.3-5.1-1.2-7.6c-0.5-1.5-1.1-2.9-1.7-4.3c-0.4-0.9-1.3-1.3-2.1-1
		c-0.8,0.2-1.3,1.1-1.1,2.1c0.1,0.7,0.3,1.4,0.6,2.1c0.7,1.9,1.4,3.8,2.2,5.7c0.3,0.8,0.7,1.6,1.1,2.3c0.3,0.6,1,0.9,0.8,1.8
		C53.6,200.8,53.9,201,54.1,201.3z"/>
	<path d="M316.4,219.3c-0.6-0.3-1.3-0.4-2-0.5c-0.9,0-1.3,0.6-0.9,1.4c0.2,0.5,0.5,1,0.9,1.4c0.7,0.9,1.5,1.7,2.2,2.6
		c1.6,2,3.3,4,4.9,5.9c0.1,0,0.2,0,0.2,0c0-2.1,0-4.3,0-6.4c0-0.3-0.2-0.7-0.4-0.9C319.8,221.5,318.3,220.2,316.4,219.3z"/>
	<path d="M71.5,263.5c2.4-2.4,4.7-4.9,7-7.4c0.2-0.3,0.6-0.7,0.5-0.9c-0.2-0.4-0.6-0.8-1-0.9c-1-0.3-2,0-3,0.4
		c-2.4,1.1-3.8,3.1-4.9,5.7c1.1-1.1,1.9-2,2.8-2.9c0.1,0.1,0.2,0.2,0.3,0.2c-0.9,1.2-1.8,2.4-2.6,3.6c-0.4,0.6-0.7,1.4-1,2.1
		c-0.1,0.4,0,0.9-0.1,1.4c-0.1,0.4-0.4,0.7-0.5,1.1C69.7,265,70.7,264.3,71.5,263.5z"/>
	<path d="M216.4,239.5c0.2,0.7,0.7,0.8,1.2,0.9c1.6,0.3,3.2,0.6,4.8,0.7c3.5,0.3,7,0.4,10.5,0.6c1.2,0.1,2.4,0.1,3.5,0.6
		c0.1,0,0.2-0.1,0.5-0.1c-0.2-0.2-0.2-0.5-0.4-0.6c-1.7-0.6-3.4-1.2-5.1-1.8c-2-0.6-4.1-0.5-6.1-0.6c-2.3-0.1-4.6-0.3-6.9-0.4
		C217.6,238.7,216.9,238.7,216.4,239.5z"/>
	<path d="M257,196.5c0.7-3.2,0.6-6.3-0.5-9.4c-0.1-0.3-0.3-0.6-0.6-0.8c-0.6-0.6-1.2-0.5-1.6,0.2c-0.3,0.5-0.4,1.1-0.4,1.7
		c0.1,1.6,0.4,3.2,0.5,4.7c0.1,2.1,0,4.2,0,6.5C255.9,198.7,256.6,198,257,196.5z"/>
	<path d="M319.9,214.6c-1-0.5-2-1.2-3-1.7c-0.8-0.4-1.5-0.1-1.8,0.4c-0.4,0.6-0.1,1.2,0.2,1.6c0.5,0.7,1,1.4,1.6,2
		c1.5,1.4,3.1,2.8,4.6,4.2c0.1-0.1,0.2-0.1,0.3-0.2c0-0.9-0.1-1.8,0-2.7C322.1,216.5,321.4,215.4,319.9,214.6z"/>
	<path d="M73.6,197.3c-0.1-0.5-0.1-1-0.3-1.5c-0.3-0.7-0.8-1.1-1.6-1.1c-0.8,0-1.3,0.4-1.6,1.1c-0.7,2.4-0.2,4.9,2.2,6.2
		c0.9,0.5,1.8,0.7,2.6,0c0.2-0.2,0.5-0.2,0.9-0.3c-0.7-1.1-1.4-2-2-3.1C73.8,198.3,73.7,197.8,73.6,197.3z"/>
	<path d="M260.4,191.6c-0.8,0-1.4,0.7-1.6,1.7c-0.1,0.7-0.1,1.4-0.1,1.9c0.1,1.6,0,3,0.7,4.3c0.1,0.1,0,0.3,0.1,0.5
		c0.1,0.7,0.4,0.9,1,0.6c0.9-0.6,1.6-1.3,1.7-2.4c0.1-0.8,0.2-1.6,0.2-2.4c0-0.9,0-1.7-0.2-2.6C262,192.2,261.2,191.6,260.4,191.6z"
		/>
	<path d="M41.3,159c-0.6,0.2-1.1,0.6-1.7,0.9c-0.9,0.4-1.7,0.7-2.6,1.1c-1.8,0.8-3.7,1.6-5.5,2.3c-0.2,0.1-0.4,0.1-0.5,0.2
		c-0.3,0.3-0.6,0.7-0.6,1c0,0.5,0.4,0.8,0.9,0.9c0.2,0,0.4,0.1,0.6,0.1c0.4,0,0.8,0,1.1-0.1c3.5-1,6.3-3.1,8.9-5.6
		c0.1-0.1,0.1-0.5,0.1-0.8C41.9,159,41.6,158.9,41.3,159z"/>
	<path d="M263.2,137.9c0.4,0.2,0.9,0.3,1.3,0.3c0.8-0.1,1.4-0.7,1.7-1.4c0.8-1.5,1.6-3,2.2-4.6c0.4-1.1,0.5-2.4,0.8-3.8
		c-0.1-0.1-0.3-0.5-0.5-0.5c-0.2,0-0.5,0.2-0.6,0.4c-0.2,0.4-0.3,0.9-0.6,1.3c-0.6,1-1.3,1.9-1.9,2.9c-0.9,1.4-1.4,3.1-2.6,4.2
		C262.6,137.1,262.7,137.7,263.2,137.9z"/>
	<path d="M38,233.1c-0.7,0.2-1.2,1-1.2,2c0.2,0.3,0.4,0.9,0.8,1.4c0.9,1.1,2,2.1,3.3,2.8c0.7,0.4,1.3,0.4,1.8,0
		c0.5-0.4,0.7-1,0.2-1.7c-0.9-1.4-1.8-2.8-2.8-4.1C39.6,232.8,38.8,232.9,38,233.1z"/>
	<path d="M303.1,308.5c-1.7-1.9-3.1-3.7-4.7-5.4c-0.2-0.3-0.8-0.4-1.1-0.3c-0.3,0.1-0.6,0.6-0.7,1c-0.1,0.5,0,1,0.2,1.5
		c0.8,2.2,2.5,3.7,3.8,5.4C301.5,309.9,302.2,309.2,303.1,308.5z"/>
	<path d="M139.6,211.8c-0.6,0.1-1.1,0.2-1.4,0.8c0.2,0.6,0.7,0.7,1.2,0.8c0.6,0.1,1.3,0.1,1.9,0.2c1.7,0.1,3.4,0.3,5.1,0.4
		c0.9,0.1,1.7,0.1,2.6,0.1c0.7,0.1,1.4,0.2,2.1,0.2c0.2,0,0.5-0.1,0.8-0.2c-0.1-0.3-0.1-0.6-0.3-0.8c-0.1-0.1-0.4-0.2-0.6-0.2
		c-1.6-0.4-3.1-0.8-4.7-1.2C144.2,211.6,141.9,211.5,139.6,211.8z"/>
	<path d="M17.7,185.3c0.5,0.2,1.1,0.3,1.6,0.3c0.5,0,1.1-0.1,1.8-0.2c-0.5-0.6-1-1.2-1.5-1.7c-1.7-1.5-3.5-3-5.3-4.5
		c-0.4-0.3-0.8-0.5-1.3-0.2c-0.5,0.3-0.7,0.7-0.5,1.2c0.1,0.5,0.3,1.1,0.6,1.5C14.4,183.2,16,184.4,17.7,185.3z"/>
	<path d="M279.6,318.4c0.1,1,0.3,1.9,0.4,3c0.9-0.3,1.6-0.6,2.4-1c-0.4-3.2-1.2-6.1-1.9-9.1c0,0,0-0.1,0-0.1
		c-0.2-0.2-0.4-0.5-0.6-0.5c-0.2,0-0.6,0.3-0.6,0.5c-0.1,1-0.3,2-0.2,2.9C279.1,315.6,279.4,317,279.6,318.4z"/>
	<path d="M27.4,170.3c-0.6,0.3-0.6,0.9,0,1.3c0.5,0.3,1.2,0.4,1.6,0.6c0.6-0.1,1-0.1,1.4-0.2c0.9-0.3,1.8-0.7,2.6-1.2
		c0.8-0.4,1.5-1,2.2-1.6c0.4-0.3,0.7-0.8,0.3-1.4c-0.3-0.5-0.8-0.6-1.5-0.3c-0.2,0.1-0.4,0.3-0.6,0.4c-1.3,0.9-2.6,1.5-4.1,1.7
		C28.6,169.8,28,170,27.4,170.3z"/>
	<path d="M164.7,198.1c1.3-0.2,2.6-0.4,4.1,0.2c0-0.4,0.1-0.7,0-0.8c-0.3-0.2-0.6-0.5-1-0.6c-0.7-0.1-1.4-0.2-2.2-0.3
		c-1.7-0.1-3.4-0.2-5.1-0.3c-0.4,0-0.8,0.1-1.1,0.2c-0.3,0.1-0.5,0.5-0.8,0.7c0.2,0.2,0.5,0.5,0.7,0.6c0.2,0.1,0.5,0.2,0.7,0.2
		C161.6,198.2,163.1,198.2,164.7,198.1z"/>
	<path d="M46.4,13.1c0.6,1,1.1,1.8,1.8,2.6c0.4,0.4,1,0.8,1.6,1c1.2,0.3,1.9-0.5,1.5-1.7c-0.4-1.2-1.1-2.2-2-3.2
		C48.3,12.1,47.4,12.6,46.4,13.1z"/>
	<path d="M314.3,200.8c0.1-0.1,0.2-0.3,0.5-0.7c-1.6,0-2.9,0-4.2,0c-0.6,0-1.2,0.3-1.9,0.4c-0.6,0.2-1.1,0.5-1,1.2
		c0.1,0.6,0.7,0.7,1.3,0.8c0.1,0,0.2,0,0.3,0C311.1,202.3,312.8,201.8,314.3,200.8z"/>
	<path d="M75.2,261.7c-0.2,0.1-0.4,0.3-0.5,0.4c-1.1,1.4-1.8,3-1.7,4.9c0,0.5,0.1,1,0.8,1.4c0.2-0.4,0.5-0.9,0.6-1.3
		c0.4-1.1,0.7-2.2,1.1-3.3c0.2-0.5,0.4-0.9,0.6-1.4c0.1-0.2-0.1-0.6-0.2-0.8C75.8,261.5,75.4,261.6,75.2,261.7z"/>
	<path d="M116.1,178.3c0,0.4,0,0.8,0,1.3c0,0.3,0.1,0.7,0.1,1c0,0.4,0,0.8,0.4,0.8c0.3,0,0.7-0.1,0.9-0.3c0.6-0.6,0.9-1.4,0.9-2.3
		c0-0.1,0-0.3,0-0.4c-0.1-0.7-0.5-1.2-1.1-1.2C116.6,177.2,116.2,177.6,116.1,178.3z"/>
	<path d="M291.9,230.6c-0.3,0-0.7,0.3-0.9,0.6c-0.6,1.1-0.2,2.3,0.8,3.2c1.1-0.8,1.4-2.3,0.8-3.3
		C292.5,230.9,292.2,230.6,291.9,230.6z"/>
	<path d="M76.7,272.8c0.7-1.6,0.7-2.5-0.1-3.1C76,270.6,76.3,271.6,76.7,272.8z"/>
</g>
<path fill="none" stroke="#000000" stroke-width="5" stroke-miterlimit="10" d="M324.9,264.3c0,33.8-27.2,61.2-60.9,61.2H67.9
	C34.3,325.5,7,298.1,7,264.3V67.2C7,33.4,34.3,6.1,67.9,6.1h196.1c33.6,0,60.9,27.4,60.9,61.2V264.3z"/>
</svg>
